<svg width="24" height="25" viewBox="0 0 24 25" fill="none" xmlns="http://www.w3.org/2000/svg">
<g id="pin_drop">
<path id="Vector" d="M12 16.975C13.65 15.6417 14.896 14.3583 15.738 13.125C16.5793 11.8917 17 10.7333 17 9.65C17 8.71667 16.8293 7.92067 16.488 7.262C16.146 6.604 15.725 6.07067 15.225 5.662C14.725 5.254 14.1833 4.95833 13.6 4.775C13.0167 4.59167 12.4833 4.5 12 4.5C11.5167 4.5 10.9833 4.59167 10.4 4.775C9.81667 4.95833 9.275 5.254 8.775 5.662C8.275 6.07067 7.85433 6.604 7.513 7.262C7.171 7.92067 7 8.71667 7 9.65C7 10.7333 7.42067 11.8917 8.262 13.125C9.104 14.3583 10.35 15.6417 12 16.975ZM12 19.5C9.65 17.7667 7.89567 16.0833 6.737 14.45C5.579 12.8167 5 11.2167 5 9.65C5 8.46667 5.21267 7.429 5.638 6.537C6.06267 5.64567 6.60833 4.9 7.275 4.3C7.94167 3.7 8.69167 3.25 9.525 2.95C10.3583 2.65 11.1833 2.5 12 2.5C12.8167 2.5 13.6417 2.65 14.475 2.95C15.3083 3.25 16.0583 3.7 16.725 4.3C17.3917 4.9 17.9377 5.64567 18.363 6.537C18.7877 7.429 19 8.46667 19 9.65C19 11.2167 18.4207 12.8167 17.262 14.45C16.104 16.0833 14.35 17.7667 12 19.5ZM12 11.5C12.55 11.5 13.021 11.304 13.413 10.912C13.8043 10.5207 14 10.05 14 9.5C14 8.95 13.8043 8.479 13.413 8.087C13.021 7.69567 12.55 7.5 12 7.5C11.45 7.5 10.9793 7.69567 10.588 8.087C10.196 8.479 10 8.95 10 9.5C10 10.05 10.196 10.5207 10.588 10.912C10.9793 11.304 11.45 11.5 12 11.5ZM5 22.5V20.5H19V22.5H5Z" fill="black"/>
</g>
</svg>
